<svg width="84" height="54" viewBox="0 0 84 54" fill="none" xmlns="http://www.w3.org/2000/svg">
<g clip-path="url(#clip0_3929_3177)">
<path d="M22.8852 15.6339C22.9989 14.6499 23.0494 13.5882 23.2579 12.5524C23.9087 9.29616 25.5641 6.55133 27.6996 4.09781C28.2303 3.48929 28.3757 2.90019 27.946 2.2334C27.4658 1.4954 26.7708 1.56013 26.0316 1.77377C22.8915 2.69302 19.8967 3.97481 17.0851 5.67091C11.285 9.16021 6.08516 15.0318 3.48208 21.3113C2.04154 24.7747 0.0513152 33.0933 3.4884 41.3343C6.75489 48.4618 13.4585 52.4496 21.1729 52.0094C29.5951 51.5239 37.0063 44.7006 37.8466 35.5145C38.5416 27.895 34.618 20.9034 27.8449 17.5371C26.3349 16.7862 24.6858 16.3201 22.8852 15.6403L22.8852 15.6339Z" stroke="#95DDFA" stroke-width="3" stroke-miterlimit="10"/>
<path d="M67.3715 15.6339C67.4852 14.6499 67.5358 13.5882 67.7443 12.5525C68.395 9.29621 70.0504 6.55138 72.1859 4.09787C72.7167 3.48934 72.862 2.90024 72.4323 2.23345C71.9522 1.49546 71.2572 1.56019 70.5179 1.77382C67.3778 2.69308 64.383 3.97487 61.5714 5.67096C55.7713 9.16027 50.5715 15.0319 47.9684 21.3113C46.5279 24.7747 44.5376 33.0934 47.9747 41.3344C51.2412 48.4619 57.9448 52.4496 65.6593 52.003C74.0814 51.5239 81.4926 44.7007 82.3329 35.5081C83.0279 27.8886 79.1043 20.897 72.3313 17.5307C70.8212 16.7798 69.1722 16.3137 67.3715 15.6339Z" stroke="#95DDFA" stroke-width="3" stroke-miterlimit="10"/>
</g>
<defs>
<clipPath id="clip0_3929_3177">
<rect width="84" height="53.6666" fill="white" transform="translate(84 53.6666) rotate(-180)"/>
</clipPath>
</defs>
</svg>
