<svg xmlns="http://www.w3.org/2000/svg" width="24" height="22" viewBox="0 0 24 22" fill="none">
<path fill-rule="evenodd" clip-rule="evenodd" d="M17.5759 9.98814C17.5759 14.4274 13.9772 18.0261 9.53795 18.0261C5.09871 18.0261 1.5 14.4274 1.5 9.98814C1.5 5.54891 5.09871 1.9502 9.53795 1.9502C13.9772 1.9502 17.5759 5.54891 17.5759 9.98814ZM16.3745 16.639C14.6417 18.4199 12.219 19.5261 9.53795 19.5261C4.27028 19.5261 0 15.2558 0 9.98814C0 4.72048 4.27028 0.450195 9.53795 0.450195C14.8056 0.450195 19.0759 4.72048 19.0759 9.98814C19.0759 11.855 18.5395 13.5967 17.6125 15.0673L23.4032 19.8929C23.8275 20.2465 23.8848 20.877 23.5313 21.3013C23.1777 21.7256 22.5471 21.7829 22.1228 21.4294L16.3745 16.639Z" fill="#95DDFA"/>
</svg>
