<svg xmlns="http://www.w3.org/2000/svg" width="24" height="22" viewBox="0 0 25 22" fill="none">
<path fill-rule="evenodd" clip-rule="evenodd" d="M18.4596 9.93248C18.4596 14.3717 14.8608 17.9704 10.4216 17.9704C5.98238 17.9704 2.38367 14.3717 2.38367 9.93248C2.38367 5.49324 5.98238 1.89453 10.4216 1.89453C14.8608 1.89453 18.4596 5.49324 18.4596 9.93248ZM17.2581 16.5834C15.5253 18.3642 13.1027 19.4704 10.4216 19.4704C5.15395 19.4704 0.883667 15.2001 0.883667 9.93248C0.883667 4.66481 5.15395 0.394531 10.4216 0.394531C15.6893 0.394531 19.9596 4.66481 19.9596 9.93248C19.9596 11.7994 19.4232 13.541 18.4962 15.0116L24.2869 19.8372C24.7112 20.1908 24.7685 20.8214 24.4149 21.2457C24.0614 21.6699 23.4308 21.7273 23.0065 21.3737L17.2581 16.5834Z" fill="#007DBA"/>
</svg>
