<svg xmlns="http://www.w3.org/2000/svg" width="24" height="22" viewBox="0 0 24 22" fill="none">
<path fill-rule="evenodd" clip-rule="evenodd" d="M17.6944 9.93248C17.6944 14.3717 14.0957 17.9704 9.65648 17.9704C5.21724 17.9704 1.61853 14.3717 1.61853 9.93248C1.61853 5.49324 5.21724 1.89453 9.65648 1.89453C14.0957 1.89453 17.6944 5.49324 17.6944 9.93248ZM16.493 16.5834C14.7602 18.3642 12.3375 19.4704 9.65648 19.4704C4.38881 19.4704 0.11853 15.2001 0.11853 9.93248C0.11853 4.66481 4.38881 0.394531 9.65648 0.394531C14.9241 0.394531 19.1944 4.66481 19.1944 9.93248C19.1944 11.7994 18.6581 13.541 17.731 15.0116L23.5217 19.8372C23.946 20.1908 24.0033 20.8214 23.6498 21.2457C23.2962 21.6699 22.6657 21.7273 22.2414 21.3737L16.493 16.5834Z" fill="#C14991"/>
</svg>
